<?xml version="1.0" encoding="UTF-8"?>
<svg version="1.1" xmlns="http://www.w3.org/2000/svg" width="512" height="512">
<path d="M0 0 C1.14805115 -0.01043099 2.29610229 -0.02086198 3.47894287 -0.03160906 C5.37171967 -0.01822473 5.37171967 -0.01822473 7.30273438 -0.00457001 C8.65627718 -0.00917791 10.00981498 -0.01553008 11.36334229 -0.02347898 C15.08643439 -0.0402111 18.80911753 -0.03190862 22.5322113 -0.01953411 C26.54591677 -0.01050169 30.55955081 -0.02444433 34.57324219 -0.0354538 C42.4374916 -0.05326301 50.30158852 -0.04938838 58.16584396 -0.03780323 C64.5558879 -0.02877861 70.94588902 -0.0275407 77.3359375 -0.0318985 C78.24455914 -0.03251143 79.15318077 -0.03312436 80.0893364 -0.03375587 C81.93504335 -0.03503474 83.78075029 -0.03633159 85.62645721 -0.03764623 C102.94356769 -0.04905907 120.26059353 -0.03592731 137.57769012 -0.01444477 C152.44441393 0.00342685 167.31101282 0.00032294 182.17773438 -0.01811981 C199.43184467 -0.03951412 216.68588074 -0.04796037 233.94000244 -0.03567076 C235.77901203 -0.03439653 237.61802164 -0.03313905 239.45703125 -0.0318985 C240.36191662 -0.0312814 241.26680199 -0.03066429 242.19910812 -0.03002849 C248.58327767 -0.02657127 254.96740023 -0.03241195 261.3515625 -0.04181671 C269.12917609 -0.0530221 276.90662815 -0.05002751 284.68422318 -0.02869374 C288.65435936 -0.01816353 292.62422601 -0.01409475 296.59436035 -0.02729034 C300.22636263 -0.03917973 303.85784466 -0.03270964 307.4897995 -0.01138014 C309.43120875 -0.00477095 311.37265391 -0.0178811 313.31402588 -0.03160906 C315.0361026 -0.01596257 315.0361026 -0.01596257 316.79296875 0 C317.78566772 0.00064941 318.7783667 0.00129882 319.80114746 0.00196791 C323.16350458 0.65154624 324.37037006 1.77875017 326.39648438 4.50336456 C326.39648438 5.82336456 326.39648438 7.14336456 326.39648438 8.50336456 C328.03230469 8.45115753 328.03230469 8.45115753 329.70117188 8.39789581 C371.04622592 7.48076376 409.83230356 25.71752 439.59130859 53.71942902 C444.66713243 58.62605872 449.15581701 63.8569082 453.39648438 69.50336456 C454.1828125 70.5127005 454.96914063 71.52203644 455.77929688 72.56195831 C474.12238302 96.63952011 486.40508916 128.07081261 486.59960938 158.52680206 C486.61019882 159.63567276 486.61019882 159.63567276 486.6210022 160.76694489 C486.84801519 191.50321374 486.84801519 191.50321374 483.39648438 204.50336456 C483.09049316 205.69107452 483.09049316 205.69107452 482.77832031 206.90277863 C476.84534959 229.41697758 467.14504985 250.3803273 452.39648438 268.50336456 C451.93870605 269.06797394 451.48092773 269.63258331 451.00927734 270.21430206 C425.1676468 301.87051548 387.54692024 323.49771154 346.69335938 328.30561066 C339.94225482 328.88686009 333.16145889 328.719268 326.39648438 328.50336456 C326.29335938 329.45211456 326.19023437 330.40086456 326.08398438 331.37836456 C325.39648438 334.50336456 325.39648438 334.50336456 322.39648438 336.50336456 C319.92534596 336.75636423 319.92534596 336.75636423 316.91601658 336.76063347 C315.76995648 336.76708236 314.62389638 336.77353125 313.44310719 336.78017557 C312.17834315 336.77707836 310.91357911 336.77398116 309.61048889 336.7707901 C308.25781339 336.7745248 306.90514005 336.7791256 305.55247015 336.78452075 C301.82722981 336.79678833 298.10207902 336.79648589 294.37682307 336.79413199 C290.36243268 336.79372478 286.34807138 336.80475379 282.33369446 336.81424713 C274.46601003 336.83087826 266.59835556 336.83635761 258.73065502 336.83747189 C252.33773516 336.83842128 245.94482522 336.84252613 239.55190849 336.84887314 C221.43918124 336.86649067 203.32647772 336.87571111 185.21374185 336.87421219 C184.2367544 336.87413228 183.25976695 336.87405237 182.25317383 336.87397003 C180.78590998 336.87384739 180.78590998 336.87384739 179.28900444 336.87372227 C163.42946724 336.87290904 147.57002495 336.89205472 131.71051521 336.92024677 C115.43821556 336.9489451 99.16596225 336.96278877 82.89363664 336.96105921 C73.75304085 336.96039429 64.61254456 336.96593114 55.47197151 336.98741531 C47.69068972 337.00558697 39.90955254 337.0100076 32.12825877 336.99639647 C28.15609346 336.98984662 24.18420589 336.98982173 20.21206665 337.00710297 C16.57819237 337.02275036 12.94481799 337.02005654 9.31095653 337.0025347 C7.3684913 336.99797931 5.42601106 337.01318726 3.48360497 337.02901399 C2.33493712 337.0198164 1.18626927 337.01061881 0.00279331 337.0011425 C-1.48706826 337.00179461 -1.48706826 337.00179461 -3.00702804 337.00245988 C-6.41687924 336.34702028 -7.57713421 335.29885185 -9.60351562 332.50336456 C-10.10491228 329.90802765 -10.10491228 329.90802765 -10.10688019 326.89984894 C-10.11731118 325.75179779 -10.12774217 324.60374664 -10.13848925 323.42090607 C-10.12956636 322.15905487 -10.12064347 320.89720367 -10.1114502 319.59711456 C-10.11605809 318.24357176 -10.12241027 316.89003396 -10.13035917 315.53650665 C-10.14709129 311.81341455 -10.13878881 308.09073141 -10.1264143 304.36763763 C-10.11738188 300.35393217 -10.13132452 296.34029813 -10.14233398 292.32660675 C-10.1601432 284.46235734 -10.15626857 276.59826042 -10.14468342 268.73400497 C-10.1356588 262.34396104 -10.13442088 255.95395991 -10.13877869 249.56391144 C-10.13939162 248.6552898 -10.14000455 247.74666817 -10.14063606 246.81051254 C-10.14191493 244.96480559 -10.14321178 243.11909865 -10.14452642 241.27339172 C-10.15593926 223.95628125 -10.1428075 206.63925541 -10.12132496 189.32215881 C-10.10345333 174.45543501 -10.10655724 159.58883612 -10.125 144.72211456 C-10.14639431 127.46800427 -10.15484055 110.2139682 -10.14255095 92.9598465 C-10.14127672 91.12083691 -10.14001923 89.2818273 -10.13877869 87.44281769 C-10.13816158 86.53793232 -10.13754448 85.63304695 -10.13690868 84.70074081 C-10.13345145 78.31657127 -10.13929213 71.93244871 -10.1486969 65.54828644 C-10.15990229 57.77067285 -10.1569077 49.99322079 -10.13557392 42.21562576 C-10.12504372 38.24548957 -10.12097493 34.27562293 -10.13417053 30.30548859 C-10.14605992 26.67348631 -10.13958983 23.04200428 -10.11826032 19.41004944 C-10.11165114 17.46864019 -10.12476129 15.52719503 -10.13848925 13.58582306 C-10.12805826 12.43777191 -10.11762727 11.28972076 -10.10688019 10.10688019 C-10.10623078 9.11418121 -10.10558137 8.12148224 -10.10491228 7.09870148 C-8.99172377 1.33659838 -5.43651803 0.00355649 0 0 Z " fill="#FECD54" transform="translate(17.603515625,87.49663543701172)"/>
<path d="M0 0 C45.00739771 0 84.58598284 16.70659088 116.50146484 48.45800781 C120.32873622 52.39626881 123.70571267 56.61365039 127 61 C128.17949219 62.51400391 128.17949219 62.51400391 129.3828125 64.05859375 C147.72589865 88.13615555 160.00860479 119.56744804 160.203125 150.0234375 C160.21371445 151.1323082 160.21371445 151.1323082 160.22451782 152.26358032 C160.45153081 182.99984918 160.45153081 182.99984918 157 196 C156.79600586 196.79180664 156.59201172 197.58361328 156.38183594 198.39941406 C150.44886521 220.91361302 140.74856548 241.87696274 126 260 C125.54222168 260.56460937 125.08444336 261.12921875 124.61279297 261.7109375 C97.74020171 294.6300864 60.04259187 314.67065737 18 320 C12.06 320 6.12 320 0 320 C0 277.76 0 235.52 0 192 C4.95 191.01 4.95 191.01 10 190 C18.61648886 186.32532093 24.76843409 181.47846359 29 173 C32.18218264 164.93327828 32.37915102 155.73629422 29.375 147.5625 C25.24331524 138.75016537 18.87752724 133.39899071 9.9375 129.75 C6.67857383 128.91793374 3.32966595 128.47566656 0 128 C0 85.76 0 43.52 0 0 Z " fill="#545C66" transform="translate(344,96)"/>
<path d="M0 0 C1.32451172 1.12341797 1.32451172 1.12341797 2.67578125 2.26953125 C3.40410156 2.88441406 4.13242188 3.49929687 4.8828125 4.1328125 C17.82551584 16.05439526 25.76640867 33.65692331 26.9296875 51.0703125 C27.72060287 71.60295486 21.52415561 89.86390998 7.67578125 105.26953125 C7.15757812 105.88054687 6.639375 106.4915625 6.10546875 107.12109375 C-2.75524454 116.87233099 -14.8688121 122.68068527 -27.32421875 126.26953125 C-28.16210938 126.51445312 -29 126.759375 -29.86328125 127.01171875 C-47.55108547 131.33014587 -67.23537895 127.57972379 -82.64453125 118.26171875 C-100.87556035 106.39188555 -112.0432704 90.10032634 -116.63671875 68.83203125 C-119.60809649 49.34665027 -115.61679899 29.90727931 -103.94921875 13.89453125 C-102.4343547 11.99781092 -100.89437052 10.12074289 -99.32421875 8.26953125 C-98.70933594 7.54121094 -98.09445313 6.81289062 -97.4609375 6.0625 C-72.18088568 -21.38286675 -28.54959051 -22.80185838 0 0 Z " fill="#ED5564" transform="translate(221.32421875,175.73046875)"/>
<path d="M0 0 C21.57270028 14.10522711 34.25067256 46.12794246 39.75 70.1875 C46.77162372 105.89067144 39.92326948 143.15659197 19.6796875 173.546875 C6.47898137 192.76050932 6.47898137 192.76050932 0 196 C-3.83614957 196.35519903 -6.14629634 196.54724594 -9.4375 194.4375 C-11.70159958 190.90550465 -11.7587407 189.13858566 -11 185 C-9.56116452 182.91299902 -7.92654423 181.16536362 -6.18359375 179.32421875 C16.33080785 155.35987358 25.95728961 123.60645673 25.09326172 91.15185547 C23.84085393 62.25467684 11.13220174 35.00317773 -8.625 14.125 C-11 11 -11 11 -11.625 7.3125 C-11 4 -11 4 -9.4375 1.5625 C-5.95474082 -0.67003794 -4.07478906 -0.69064221 0 0 Z " fill="#646C77" transform="translate(438,158)"/>
<path d="M0 0 C0.80520411 -0.00638882 1.61040822 -0.01277764 2.44001245 -0.01936007 C5.13576762 -0.03461007 7.83005306 -0.01414953 10.52575684 0.00622559 C12.45924873 0.00272438 14.39273774 -0.00293418 16.32621765 -0.0105896 C21.5762809 -0.0248473 26.82582102 -0.00776622 32.07583427 0.01569557 C37.56813242 0.03578951 43.06040852 0.02992577 48.55273438 0.02758789 C57.77641436 0.02764148 66.9998896 0.04740786 76.22351074 0.07946777 C86.88962161 0.11636119 97.55546423 0.12514347 108.22163057 0.11817026 C118.47910468 0.11186655 128.73648673 0.12261713 138.99394226 0.14213562 C143.36066499 0.15031363 147.72734069 0.15301842 152.09407043 0.15144348 C157.23559958 0.15056499 162.37687352 0.1647713 167.51833534 0.19067001 C169.40614396 0.19783649 171.29397971 0.19991313 173.18179893 0.19655228 C175.75713763 0.19284177 178.33172977 0.20756984 180.90698242 0.22705078 C181.65552443 0.22172286 182.40406644 0.21639493 183.17529154 0.21090555 C187.57866315 0.26844373 190.50891779 0.80122384 193.95349121 3.62145996 C195.12530035 7.57631579 195.35830451 9.69038938 193.70349121 13.49645996 C191.95349121 15.62145996 191.95349121 15.62145996 188.95349121 16.62145996 C186.34045636 16.72145009 183.75399056 16.76490075 181.14076233 16.76190186 C179.93446109 16.76635854 179.93446109 16.76635854 178.70379013 16.77090526 C175.99998538 16.77960023 173.29622486 16.78110117 170.59240723 16.78259277 C168.65759181 16.7872203 166.7227773 16.79224487 164.78796387 16.79763794 C159.52564442 16.8107683 154.26333773 16.81720788 149.00100446 16.8216486 C145.71558729 16.82457766 142.43017363 16.8286821 139.14475822 16.83315277 C128.87183223 16.84682797 118.59891423 16.85649512 108.32597977 16.86035466 C96.45500326 16.86483879 84.5841417 16.88240307 72.71320015 16.91135526 C63.54457313 16.93294317 54.37597853 16.94305736 45.20732635 16.94439578 C39.72761014 16.94544568 34.24800198 16.95139287 28.76831245 16.96921539 C23.61619267 16.98564664 18.46426274 16.98787572 13.31212616 16.97907639 C11.41904379 16.97830341 9.52595141 16.98268281 7.63289452 16.99253464 C5.05276898 17.00517695 2.47332381 16.99941976 -0.10679626 16.98895264 C-1.2360249 17.00103724 -1.2360249 17.00103724 -2.38806623 17.01336598 C-5.56124354 16.98316312 -7.71476984 16.81209493 -10.49366856 15.21519089 C-12.30186133 13.35938326 -12.75662804 12.29749808 -13.10900879 9.74645996 C-13.22373535 9.08903809 -13.33846191 8.43161621 -13.45666504 7.75427246 C-12.11851013 0.79586693 -6.00526314 -0.10042586 0 0 Z " fill="#EDAB37" transform="translate(85.0465087890625,327.3785400390625)"/>
<path d="M0 0 C8.80849674 5.19318329 14.49164297 12.49034623 17.24609375 22.32421875 C18.09785258 30.77247786 17.77446518 38.0308604 13.24609375 45.32421875 C12.82199219 46.02160156 12.39789063 46.71898437 11.9609375 47.4375 C7.14548708 54.56007429 0.52170719 59.06256042 -7.75390625 61.32421875 C-16.20216536 62.17597758 -23.4605479 61.85259018 -30.75390625 57.32421875 C-31.45128906 56.90011719 -32.14867187 56.47601563 -32.8671875 56.0390625 C-39.99117902 51.22265392 -44.48934091 44.60017573 -46.75390625 36.32421875 C-47.86525417 25.41750195 -46.49172381 16.59857923 -39.50390625 8.01171875 C-29.22856534 -2.87970256 -13.84119891 -6.47740835 0 0 Z " fill="#FECD54" transform="translate(190.75390625,202.67578125)"/>
<path d="M0 0 C4.2339378 1.36090858 5.61529439 2.74778368 8.5 6.125 C9.37591797 7.01832031 9.37591797 7.01832031 10.26953125 7.9296875 C28.51932642 27.00738265 36.20862465 53.31357956 35.90454102 79.24853516 C35.66231307 87.13884732 34.60613209 94.49346876 32.5 102.125 C32.17128906 103.33027344 31.84257812 104.53554688 31.50390625 105.77734375 C27.18845591 120.00787721 20.34956147 132.95784369 10.5 144.125 C9.58150043 145.29022419 8.66457175 146.45669036 7.75 147.625 C4.38803089 151.36052124 4.38803089 151.36052124 1.5 152.125 C-4.59749492 151.91105281 -4.59749492 151.91105281 -7.4375 149.4375 C-8.82899602 146.40894984 -8.82715391 144.44152277 -8.5 141.125 C-6.84765625 138.625 -6.84765625 138.625 -4.5625 136.125 C6.61523711 123.10188177 14.8965319 108.33493849 17.5 91.125 C17.66435547 90.09439453 17.66435547 90.09439453 17.83203125 89.04296875 C21.01152589 65.51470839 15.44236683 42.31195007 1.5 23.125 C-0.82660723 20.30162103 -3.2104358 17.61262123 -5.75 14.98046875 C-7.95905087 12.63828312 -8.4466918 11.52481148 -8.875 8.3125 C-8.5 5.125 -8.5 5.125 -6.4375 2.1875 C-3.5 0.125 -3.5 0.125 0 0 Z " fill="#646C77" transform="translate(412.5,179.875)"/>
<path d="M0 0 C12.08957508 8.28584104 18.90495343 24.96331244 22.3125 38.6875 C25.65768455 58.72612981 21.5107708 79.23854983 9.671875 95.86523438 C6.7807821 99.62121883 3.83540286 103.18345937 0 106 C-3.65587 106.37525861 -6.01634403 106.44005662 -9.375 104.9375 C-11.96906624 101.84457487 -12.19550696 100.04047716 -12 96 C-10.53616849 93.63883524 -8.83738401 91.62034698 -7.04296875 89.5 C3.09891268 77.08928467 7.24397228 62.8845691 6 47 C4.68987547 34.68841876 -0.56181979 24.69450289 -8.42944336 15.33911133 C-11.14314051 11.94894832 -12.01395997 10.68403857 -11.921875 6.171875 C-11 3 -11 3 -9.375 1.0625 C-5.79851358 -0.53750708 -3.89932888 -0.71487696 0 0 Z " fill="#646C77" transform="translate(393,203)"/>
<path d="M0 0 C9.63532297 0 16.2149799 2.44082448 23.24609375 9.07421875 C30.41749233 16.94838244 32.48967664 24.99640708 32.3125 35.52734375 C31.8756588 40.3817416 30.55322424 43.88779772 28 48 C27.57589844 48.69738281 27.15179688 49.39476562 26.71484375 50.11328125 C22.07691926 56.97327541 15.18450178 62.22076048 7 64 C4.69 64 2.38 64 0 64 C0 42.88 0 21.76 0 0 Z " fill="#EB5565" transform="translate(344,224)"/>
<path d="M0 0 C0.82175217 -0.00554901 1.64350433 -0.01109802 2.49015808 -0.01681519 C5.19911515 -0.02859978 7.90639499 -0.00434938 10.61523438 0.02148438 C12.50183028 0.02319588 14.38842856 0.02312939 16.27502441 0.0213623 C20.22606199 0.02301487 24.17653173 0.04170121 28.12744141 0.07324219 C33.1883391 0.11291954 38.24849319 0.11728702 43.30951691 0.10977936 C47.20435379 0.10670774 51.09902394 0.11883701 54.99382019 0.13591003 C56.85970514 0.14293428 58.72560898 0.14606527 60.59150696 0.1452179 C63.20067401 0.14701848 65.80895517 0.16842221 68.41796875 0.1953125 C69.18694992 0.1923819 69.95593109 0.18945129 70.74821472 0.18643188 C75.20870465 0.25725177 78.22342646 0.74282828 81.70898438 3.61523438 C82.88079351 7.57009021 83.11379767 9.68416379 81.45898438 13.49023438 C79.70898438 15.61523438 79.70898438 15.61523438 76.70898438 16.61523438 C74.00737602 16.72178953 71.33118471 16.77248352 68.62915039 16.77636719 C67.39455078 16.78381454 67.39455078 16.78381454 66.13500977 16.79141235 C63.41096157 16.80602344 60.68697157 16.81283351 57.96289062 16.81835938 C56.07103982 16.82411081 54.17918903 16.82986855 52.28733826 16.83563232 C48.32038094 16.8461387 44.35344388 16.85198404 40.38647461 16.85546875 C35.30084772 16.86095881 30.21548785 16.88499928 25.1299448 16.9134407 C21.22233799 16.93205228 17.31479576 16.93727185 13.40714836 16.93880463 C11.53203811 16.94183403 9.65692907 16.9498722 7.78186226 16.96298981 C5.16043802 16.98002266 2.53966984 16.97817716 -0.08178711 16.97167969 C-1.24536491 16.98550186 -1.24536491 16.98550186 -2.43244934 16.99960327 C-5.66902358 16.97444159 -7.91420473 16.8301842 -10.75502014 15.20965576 C-12.54413618 13.35248566 -13.00267359 12.28013304 -13.35351562 9.74023438 C-13.46824219 9.0828125 -13.58296875 8.42539062 -13.70117188 7.74804688 C-12.33925311 0.66606928 -6.07710471 -0.10481678 0 0 Z " fill="#EDAB37" transform="translate(141.291015625,351.384765625)"/>
</svg>
